<svg xmlns="http://www.w3.org/2000/svg" viewBox="0 0 1000 420" width="1000" height="420">
<rect width="1000" height="420" fill="white"/>
<text x="250.0" y="32.0" font-family="Arial, Helvetica, sans-serif" font-size="14.5" fill="#000" text-anchor="middle" font-weight="bold">(a) Single shear: lap joint, one shear plane</text>
<rect x="90.0" y="130.0" width="210.0" height="40.0" fill="#9aa4ad" stroke="#000" stroke-width="1.8"/>
<rect x="230.0" y="170.0" width="210.0" height="40.0" fill="#dfe3e6" stroke="#000" stroke-width="1.8"/>
<rect x="238.0" y="122.0" width="26.0" height="96.0" fill="#d9b45a" stroke="#000" stroke-width="1.8"/>
<line x1="251.0" y1="118.0" x2="251.0" y2="226.0" stroke="#666" stroke-width="1.0" stroke-dasharray="3,3"/>
<line x1="224.0" y1="170.0" x2="286.0" y2="170.0" stroke="#c00000" stroke-width="2.4"/>
<line x1="286.0" y1="170.0" x2="340.0" y2="118.0" stroke="#c00000" stroke-width="1.0"/>
<text x="344.0" y="116.0" font-family="Arial, Helvetica, sans-serif" font-size="12" fill="#c00000" text-anchor="start" font-weight="normal">shear plane</text>
<line x1="86.0" y1="150.0" x2="29.0" y2="150.0" stroke="#c00000" stroke-width="2.4"/>
<polygon points="20.0,150.0 29.0,146.6 29.0,153.4" fill="#c00000" fill-opacity="1.0" stroke="#c00000" stroke-width="0"/>
<text x="14.0" y="155.0" font-family="Arial, Helvetica, sans-serif" font-size="15" fill="#c00000" text-anchor="end" font-weight="normal" font-style="italic">F</text>
<line x1="444.0" y1="190.0" x2="501.0" y2="190.0" stroke="#c00000" stroke-width="2.4"/>
<polygon points="510.0,190.0 501.0,193.4 501.0,186.6" fill="#c00000" fill-opacity="1.0" stroke="#c00000" stroke-width="0"/>
<text x="516.0" y="195.0" font-family="Arial, Helvetica, sans-serif" font-size="15" fill="#c00000" text-anchor="start" font-weight="normal" font-style="italic">F</text>
<text x="250.0" y="268.0" font-family="Arial, Helvetica, sans-serif" font-size="12.5" fill="#333" text-anchor="middle" font-weight="normal">the whole load crosses ONE section of the pin</text>
<circle cx="250.0" cy="320.0" r="30.0" fill="#d9b45a" stroke="#000" stroke-width="1.8"/>
<text x="250.0" y="325.0" font-family="Arial, Helvetica, sans-serif" font-size="14" fill="#000" text-anchor="middle" font-weight="bold">A</text>
<text x="292.0" y="325.0" font-family="Arial, Helvetica, sans-serif" font-size="12.5" fill="#333" text-anchor="start" font-weight="normal">= πd²/4 (one area)</text>
<text x="212.6" y="394.0" font-family="Arial, Helvetica, sans-serif" font-size="16" fill="#1a4fd6" text-anchor="start" font-weight="bold">τ = F / A</text>
<line x1="510.0" y1="60.0" x2="510.0" y2="402.0" stroke="#ccc" stroke-width="1.2"/>
<text x="755.0" y="32.0" font-family="Arial, Helvetica, sans-serif" font-size="14.5" fill="#000" text-anchor="middle" font-weight="bold">(b) Double shear: clevis, two shear planes</text>
<rect x="590.0" y="122.0" width="70.0" height="40.0" fill="#9aa4ad" stroke="#000" stroke-width="1.8"/>
<rect x="590.0" y="178.0" width="70.0" height="40.0" fill="#9aa4ad" stroke="#000" stroke-width="1.8"/>
<rect x="660.0" y="150.0" width="190.0" height="40.0" fill="#dfe3e6" stroke="#000" stroke-width="1.8"/>
<rect x="636.0" y="114.0" width="26.0" height="112.0" fill="#d9b45a" stroke="#000" stroke-width="1.8"/>
<line x1="626.0" y1="156.0" x2="672.0" y2="156.0" stroke="#c00000" stroke-width="2.4"/>
<line x1="626.0" y1="184.0" x2="672.0" y2="184.0" stroke="#c00000" stroke-width="2.4"/>
<line x1="672.0" y1="156.0" x2="742.0" y2="112.0" stroke="#c00000" stroke-width="1.0"/>
<line x1="672.0" y1="184.0" x2="742.0" y2="240.0" stroke="#c00000" stroke-width="1.0"/>
<text x="746.0" y="110.0" font-family="Arial, Helvetica, sans-serif" font-size="12" fill="#c00000" text-anchor="start" font-weight="normal">shear plane 1</text>
<text x="746.0" y="245.0" font-family="Arial, Helvetica, sans-serif" font-size="12" fill="#c00000" text-anchor="start" font-weight="normal">shear plane 2</text>
<line x1="586.0" y1="142.0" x2="537.0" y2="142.0" stroke="#c00000" stroke-width="2.2"/>
<polygon points="528.0,142.0 537.0,138.6 537.0,145.4" fill="#c00000" fill-opacity="1.0" stroke="#c00000" stroke-width="0"/>
<line x1="586.0" y1="198.0" x2="537.0" y2="198.0" stroke="#c00000" stroke-width="2.2"/>
<polygon points="528.0,198.0 537.0,194.6 537.0,201.4" fill="#c00000" fill-opacity="1.0" stroke="#c00000" stroke-width="0"/>
<text x="522.0" y="147.0" font-family="Arial, Helvetica, sans-serif" font-size="13" fill="#c00000" text-anchor="end" font-weight="normal">F/2</text>
<text x="522.0" y="203.0" font-family="Arial, Helvetica, sans-serif" font-size="13" fill="#c00000" text-anchor="end" font-weight="normal">F/2</text>
<line x1="854.0" y1="170.0" x2="911.0" y2="170.0" stroke="#c00000" stroke-width="2.4"/>
<polygon points="920.0,170.0 911.0,173.4 911.0,166.6" fill="#c00000" fill-opacity="1.0" stroke="#c00000" stroke-width="0"/>
<text x="926.0" y="175.0" font-family="Arial, Helvetica, sans-serif" font-size="15" fill="#c00000" text-anchor="start" font-weight="normal" font-style="italic">F</text>
<text x="755.0" y="268.0" font-family="Arial, Helvetica, sans-serif" font-size="12.5" fill="#333" text-anchor="middle" font-weight="normal">the load is shared by TWO sections of the pin</text>
<circle cx="700.0" cy="320.0" r="30.0" fill="#d9b45a" stroke="#000" stroke-width="1.8"/>
<circle cx="772.0" cy="320.0" r="30.0" fill="#d9b45a" stroke="#000" stroke-width="1.8"/>
<text x="700.0" y="325.0" font-family="Arial, Helvetica, sans-serif" font-size="14" fill="#000" text-anchor="middle" font-weight="bold">A</text>
<text x="772.0" y="325.0" font-family="Arial, Helvetica, sans-serif" font-size="14" fill="#000" text-anchor="middle" font-weight="bold">A</text>
<text x="812.0" y="325.0" font-family="Arial, Helvetica, sans-serif" font-size="12.5" fill="#333" text-anchor="start" font-weight="normal">= 2A total</text>
<text x="584.4" y="394.0" font-family="Arial, Helvetica, sans-serif" font-size="16" fill="#1a4fd6" text-anchor="start" font-weight="bold">τ = F / 2A   (half the single-shear stress)</text>
</svg>