<svg xmlns="http://www.w3.org/2000/svg" viewBox="0 0 940 470" width="940" height="470">
<rect width="940" height="470" fill="white"/>
<text x="270" y="34" font-family="Arial, Helvetica, sans-serif" font-size="15" font-weight="bold" fill="#000" text-anchor="middle">(a) Modulus of toughness: area under the whole curve</text>
<path d="M100.0,400.0 L101.9,250.0 Q103.8,214.4 105.1,212.5 C140.8,169.6 195.2,129.5 263.2,121.4 C310.8,125.7 358.4,148.2 399.2,180.4 L399.2,400.0 L100.0,400.0 Z" fill="#f6b26b" fill-opacity="0.55" stroke="none"/>
<line x1="100" y1="400" x2="100" y2="82" stroke="#000" stroke-width="1.6"/>
<polygon points="100,74 95,86 105,86" fill="#000"/>
<line x1="100" y1="400" x2="458" y2="400" stroke="#000" stroke-width="1.6"/>
<polygon points="466,400 454,395 454,405" fill="#000"/>
<line x1="100.0" y1="400" x2="100.0" y2="405" stroke="#000" stroke-width="1.2"/>
<text x="100.0" y="420" font-family="Arial, Helvetica, sans-serif" font-size="12" fill="#333" text-anchor="middle">0</text>
<line x1="168.0" y1="400" x2="168.0" y2="405" stroke="#000" stroke-width="1.2"/>
<text x="168.0" y="420" font-family="Arial, Helvetica, sans-serif" font-size="12" fill="#333" text-anchor="middle">0.05</text>
<line x1="236.0" y1="400" x2="236.0" y2="405" stroke="#000" stroke-width="1.2"/>
<text x="236.0" y="420" font-family="Arial, Helvetica, sans-serif" font-size="12" fill="#333" text-anchor="middle">0.1</text>
<line x1="304.0" y1="400" x2="304.0" y2="405" stroke="#000" stroke-width="1.2"/>
<text x="304.0" y="420" font-family="Arial, Helvetica, sans-serif" font-size="12" fill="#333" text-anchor="middle">0.15</text>
<line x1="372.0" y1="400" x2="372.0" y2="405" stroke="#000" stroke-width="1.2"/>
<text x="372.0" y="420" font-family="Arial, Helvetica, sans-serif" font-size="12" fill="#333" text-anchor="middle">0.2</text>
<line x1="440.0" y1="400" x2="440.0" y2="405" stroke="#000" stroke-width="1.2"/>
<text x="440.0" y="420" font-family="Arial, Helvetica, sans-serif" font-size="12" fill="#333" text-anchor="middle">0.25</text>
<line x1="95" y1="400.0" x2="100" y2="400.0" stroke="#000" stroke-width="1.2"/>
<text x="91" y="404.0" font-family="Arial, Helvetica, sans-serif" font-size="12" fill="#333" text-anchor="end">0</text>
<line x1="95" y1="346.4" x2="100" y2="346.4" stroke="#000" stroke-width="1.2"/>
<text x="91" y="350.4" font-family="Arial, Helvetica, sans-serif" font-size="12" fill="#333" text-anchor="end">100</text>
<line x1="95" y1="292.9" x2="100" y2="292.9" stroke="#000" stroke-width="1.2"/>
<text x="91" y="296.9" font-family="Arial, Helvetica, sans-serif" font-size="12" fill="#333" text-anchor="end">200</text>
<line x1="95" y1="239.3" x2="100" y2="239.3" stroke="#000" stroke-width="1.2"/>
<text x="91" y="243.3" font-family="Arial, Helvetica, sans-serif" font-size="12" fill="#333" text-anchor="end">300</text>
<line x1="95" y1="185.7" x2="100" y2="185.7" stroke="#000" stroke-width="1.2"/>
<text x="91" y="189.7" font-family="Arial, Helvetica, sans-serif" font-size="12" fill="#333" text-anchor="end">400</text>
<line x1="95" y1="132.1" x2="100" y2="132.1" stroke="#000" stroke-width="1.2"/>
<text x="91" y="136.1" font-family="Arial, Helvetica, sans-serif" font-size="12" fill="#333" text-anchor="end">500</text>
<text x="270" y="442" font-family="Arial, Helvetica, sans-serif" font-size="13" fill="#000" text-anchor="middle">Strain ε (mm/mm)</text>
<text x="56" y="250" font-family="Arial, Helvetica, sans-serif" font-size="13" fill="#000" text-anchor="middle" transform="rotate(-90 56 250)">Stress σ (MPa)</text>
<path d="M100.0,400.0 L101.9,250.0 Q103.8,214.4 105.1,212.5 C140.8,169.6 195.2,129.5 263.2,121.4 C310.8,125.7 358.4,148.2 399.2,180.4" fill="none" stroke="#1a4fd6" stroke-width="2.6"/>
<text x="174.8" y="298.2" font-family="Arial, Helvetica, sans-serif" font-size="13" fill="#7a4100">area under the whole curve</text>
<text x="174.8" y="318.2" font-family="Arial, Helvetica, sans-serif" font-size="14" font-weight="bold" fill="#7a4100">u<tspan baseline-shift="sub" font-size="9">T</tspan> ≈ 95 MJ/m³</text>
<text x="174.8" y="338.2" font-family="Arial, Helvetica, sans-serif" font-size="12" fill="#333">99.7% of it is plastic work</text>
<text x="740" y="34" font-family="Arial, Helvetica, sans-serif" font-size="15" font-weight="bold" fill="#000" text-anchor="middle">(b) Magnified: modulus of resilience (elastic area)</text>
<polygon points="590.0,400.0 655.6,150.0 655.6,400.0" fill="#6aa84f" fill-opacity="0.55"/>
<line x1="590" y1="400" x2="590" y2="82" stroke="#000" stroke-width="1.6"/>
<polygon points="590,74 585,86 595,86" fill="#000"/>
<line x1="590" y1="400" x2="908" y2="400" stroke="#000" stroke-width="1.6"/>
<polygon points="916,400 904,395 904,405" fill="#000"/>
<line x1="590.0" y1="400" x2="590.0" y2="405" stroke="#000" stroke-width="1.2"/>
<text x="590.0" y="420" font-family="Arial, Helvetica, sans-serif" font-size="12" fill="#333" text-anchor="middle">0</text>
<line x1="665.0" y1="400" x2="665.0" y2="405" stroke="#000" stroke-width="1.2"/>
<text x="665.0" y="420" font-family="Arial, Helvetica, sans-serif" font-size="12" fill="#333" text-anchor="middle">0.002</text>
<line x1="740.0" y1="400" x2="740.0" y2="405" stroke="#000" stroke-width="1.2"/>
<text x="740.0" y="420" font-family="Arial, Helvetica, sans-serif" font-size="12" fill="#333" text-anchor="middle">0.004</text>
<line x1="815.0" y1="400" x2="815.0" y2="405" stroke="#000" stroke-width="1.2"/>
<text x="815.0" y="420" font-family="Arial, Helvetica, sans-serif" font-size="12" fill="#333" text-anchor="middle">0.006</text>
<line x1="890.0" y1="400" x2="890.0" y2="405" stroke="#000" stroke-width="1.2"/>
<text x="890.0" y="420" font-family="Arial, Helvetica, sans-serif" font-size="12" fill="#333" text-anchor="middle">0.008</text>
<line x1="585" y1="400.0" x2="590" y2="400.0" stroke="#000" stroke-width="1.2"/>
<text x="581" y="404.0" font-family="Arial, Helvetica, sans-serif" font-size="12" fill="#333" text-anchor="end">0</text>
<line x1="585" y1="328.6" x2="590" y2="328.6" stroke="#000" stroke-width="1.2"/>
<text x="581" y="332.6" font-family="Arial, Helvetica, sans-serif" font-size="12" fill="#333" text-anchor="end">100</text>
<line x1="585" y1="257.1" x2="590" y2="257.1" stroke="#000" stroke-width="1.2"/>
<text x="581" y="261.1" font-family="Arial, Helvetica, sans-serif" font-size="12" fill="#333" text-anchor="end">200</text>
<line x1="585" y1="185.7" x2="590" y2="185.7" stroke="#000" stroke-width="1.2"/>
<text x="581" y="189.7" font-family="Arial, Helvetica, sans-serif" font-size="12" fill="#333" text-anchor="end">300</text>
<line x1="585" y1="114.3" x2="590" y2="114.3" stroke="#000" stroke-width="1.2"/>
<text x="581" y="118.3" font-family="Arial, Helvetica, sans-serif" font-size="12" fill="#333" text-anchor="end">400</text>
<text x="740" y="442" font-family="Arial, Helvetica, sans-serif" font-size="13" fill="#000" text-anchor="middle">Strain ε (mm/mm)</text>
<text x="546" y="250" font-family="Arial, Helvetica, sans-serif" font-size="13" fill="#000" text-anchor="middle" transform="rotate(-90 546 250)">Stress σ (MPa)</text>
<path d="M590.0,400.0 L642.5,200.0 Q695.0,160.7 730.6,150.0 Q815.0,141.4 890.0,137.1" fill="none" stroke="#1a4fd6" stroke-width="2.6"/>
<line x1="655.6" y1="150.0" x2="655.6" y2="400.0" stroke="#2d6a20" stroke-width="1.2" stroke-dasharray="3,3"/>
<text x="747.5" y="250.0" font-family="Arial, Helvetica, sans-serif" font-size="13" fill="#2d6a20">elastic triangle</text>
<text x="747.5" y="267.0" font-family="Arial, Helvetica, sans-serif" font-size="13" font-weight="bold" fill="#2d6a20">u<tspan baseline-shift="sub" font-size="9">r</tspan> = σ<tspan baseline-shift="sub" font-size="9">y</tspan>²/2E</text>
<text x="747.5" y="284.0" font-family="Arial, Helvetica, sans-serif" font-size="13" font-weight="bold" fill="#2d6a20">= 306 kJ/m³</text>
<text x="495" y="458" font-family="Arial, Helvetica, sans-serif" font-size="12.5" fill="#333" text-anchor="middle">Resilience is 306 kJ/m³ against a toughness of 95 MJ/m³ — a factor of 310, which is why the green triangle is invisible at the scale of (a)</text>
</svg>